<svg id="visual" viewBox="0 0 960 540" width="960" height="540" xmlns="http://www.w3.org/2000/svg" xmlns:xlink="http://www.w3.org/1999/xlink" version="1.1"><rect x="0" y="0" width="960" height="540" fill="#001220"></rect><defs><linearGradient id="grad1_0" x1="43.8%" y1="0%" x2="100%" y2="100%"><stop offset="14.444444444444446%" stop-color="#001220" stop-opacity="1"></stop><stop offset="85.55555555555554%" stop-color="#001220" stop-opacity="1"></stop></linearGradient></defs><defs><linearGradient id="grad2_0" x1="0%" y1="0%" x2="56.3%" y2="100%"><stop offset="14.444444444444446%" stop-color="#001220" stop-opacity="1"></stop><stop offset="85.55555555555554%" stop-color="#001220" stop-opacity="1"></stop></linearGradient></defs><g transform="translate(960, 0)"><path d="M0 216C-13 203.1 -26.1 190.1 -35.1 176.5C-44.2 162.9 -49.3 148.7 -62 149.7C-74.7 150.6 -95.1 166.8 -115 172.1C-134.9 177.4 -154.4 171.7 -152.7 152.7C-151 133.7 -128.1 101.4 -130.5 87.2C-133 73.1 -160.9 77 -171.8 71.2C-182.8 65.3 -176.9 49.6 -181.4 36.1C-186 22.6 -201 11.3 -216 0L0 0Z" fill="#715DF2"></path></g><g transform="translate(0, 540)"><path d="M0 -216C16.9 -222 33.8 -228.1 42.1 -211.8C50.5 -195.6 50.4 -157.1 60.8 -146.9C71.3 -136.7 92.4 -154.7 101.1 -151.3C109.9 -148 106.3 -123.2 111 -111C115.7 -98.8 128.8 -99.2 142.2 -95C155.6 -90.8 169.3 -81.9 170 -70.4C170.7 -58.9 158.3 -44.8 163.8 -32.6C169.3 -20.4 192.6 -10.2 216 0L0 0Z" fill="#715DF2"></path></g></svg>